<?xml version="1.0" encoding="utf-8"?>
<!-- Generator: Adobe Illustrator 15.1.0, SVG Export Plug-In . SVG Version: 6.00 Build 0)  -->
<!DOCTYPE svg PUBLIC "-//W3C//DTD SVG 1.1//EN" "http://www.w3.org/Graphics/SVG/1.1/DTD/svg11.dtd">
<svg version="1.1" id="Layer_2" xmlns="http://www.w3.org/2000/svg" xmlns:xlink="http://www.w3.org/1999/xlink" x="0px" y="0px"
	 width="792px" height="612px" viewBox="0 0 792 612" enable-background="new 0 0 792 612" xml:space="preserve">
<g>
	<path fill="#29B473" d="M190.233,209.596v193.333H226.5h12h145.066v-36.267v-12v-24.267v-12v-108.8H190.233z M371.566,390.929
		H238.5v-24.267h133.066V390.929z M371.566,354.662H238.5v-24.267h133.066V354.662z M226.5,318.396v36.267v12v24.267h-24.267
		V221.596h169.333v96.8H226.5z"/>
	<path fill="#29B473" d="M226.5,294.129h120.8v-48.267H226.5V294.129z M238.5,257.862h96.8v24.267h-96.8V257.862z"/>
</g>
<path fill="#29B473" d="M409.233,209.596v193.333h193.333v-108.8v-12v-24.267v-12v-36.267H409.233z M590.566,282.129h-108.8v48.267
	H554.3v24.267h-96.8v-96.8h133.066V282.129z M445.5,245.862v120.8h120.8v-48.267h-72.533v-24.267h96.8v96.8H421.233V221.596h169.333
	v24.267H445.5z"/>
</svg>
